<?xml version="1.0" encoding="UTF-8" standalone="no"?>
<!-- Created with Inkscape (http://www.inkscape.org/) -->

<svg
   width="240"
   height="240"
   viewBox="0 0 63.5 63.5"
   version="1.1"
   id="svg1"
   inkscape:version="1.3.1 (91b66b0, 2023-11-16)"
   sodipodi:docname="in_call.svg"
   inkscape:export-filename="in_call.png"
   inkscape:export-xdpi="96"
   inkscape:export-ydpi="96"
   xml:space="preserve"
   xmlns:inkscape="http://www.inkscape.org/namespaces/inkscape"
   xmlns:sodipodi="http://sodipodi.sourceforge.net/DTD/sodipodi-0.dtd"
   xmlns="http://www.w3.org/2000/svg"
   xmlns:svg="http://www.w3.org/2000/svg"><sodipodi:namedview
     id="namedview1"
     pagecolor="#ffffff"
     bordercolor="#666666"
     borderopacity="1.0"
     inkscape:showpageshadow="2"
     inkscape:pageopacity="0.0"
     inkscape:pagecheckerboard="0"
     inkscape:deskcolor="#d1d1d1"
     inkscape:document-units="mm"
     inkscape:zoom="1.3115105"
     inkscape:cx="191.38239"
     inkscape:cy="60.99837"
     inkscape:window-width="1888"
     inkscape:window-height="1547"
     inkscape:window-x="1952"
     inkscape:window-y="25"
     inkscape:window-maximized="0"
     inkscape:current-layer="layer1"
     showgrid="false" /><defs
     id="defs1" /><g
     inkscape:label="Layer 1"
     inkscape:groupmode="layer"
     id="layer1"><circle
       style="fill:#fe0000;fill-opacity:1;stroke:#ff0000;stroke-width:0;stroke-dasharray:none;stroke-opacity:1"
       id="path1"
       cx="31.75"
       cy="31.75"
       r="31.75" /><circle
       style="fill:#000000;fill-opacity:1;stroke:#000000;stroke-width:0;stroke-dasharray:none;stroke-opacity:1"
       id="path3"
       cx="31.75"
       cy="31.750002"
       r="23.8125" /><path
       style="fill:#fd8d00;fill-opacity:1;stroke:#000000;stroke-width:0;stroke-dasharray:none;stroke-opacity:1"
       id="path2"
       sodipodi:type="arc"
       sodipodi:cx="31.75"
       sodipodi:cy="31.75"
       sodipodi:rx="22.489584"
       sodipodi:ry="22.489584"
       sodipodi:start="3.1415927"
       sodipodi:end="0"
       sodipodi:arc-type="slice" /><path
       style="fill:#ff0000;fill-opacity:1;stroke:#000000;stroke-width:0;stroke-dasharray:none;stroke-opacity:1"
       id="path6"
       sodipodi:type="arc"
       sodipodi:cx="31.75"
       sodipodi:cy="31.75"
       sodipodi:rx="22.489584"
       sodipodi:ry="22.489584"
       sodipodi:start="0"
       sodipodi:end="3.1415927"
       sodipodi:arc-type="slice" /><rect
       style="fill:#000000;fill-opacity:1;stroke:#000000;stroke-width:0;stroke-dasharray:none;stroke-opacity:1"
       id="rect5"
       width="47.360416"
       height="1.3229166"
       x="8.0697918"
       y="31.088541"
       ry="0" /><text
       xml:space="preserve"
       style="font-size:1.41111px;line-height:1.25;font-family:FontAwesome;-inkscape-font-specification:FontAwesome;stroke-width:0.264583"
       x="4.6400061"
       y="5.6487031"
       id="text6"><tspan
         sodipodi:role="line"
         id="tspan6"
         style="stroke-width:0.264583"></tspan></text><path
       d="m 37.706867,13.69627 c 0.21497,-0.211862 0.52709,-0.162772 0.696586,0.105931 0.169495,0.268702 0.130222,0.658838 -0.08475,0.8707 L 26.081941,26.661174 c -0.21497,0.211861 -0.527091,0.162772 -0.696586,-0.105931 -0.169496,-0.268703 -0.130223,-0.658838 0.08475,-0.8707 l 3.216284,-3.152089 c -1.302223,-1.992017 -2.083557,-4.539525 -2.083557,-7.314397 0,-0.465062 0.25011,-0.873284 0.609771,-0.9973 l 1.818979,-0.620083 c 0.401002,-0.136935 0.820607,0.118849 0.979768,0.599413 l 0.826808,2.480333 c 0.140558,0.421139 0.0434,0.909455 -0.239774,1.196243 l -1.019042,1.043807 c 0.248043,0.658838 0.56223,1.27117 0.93016,1.826661 z m -7.5839,10.606004 1.88719,-1.860249 c 0.283182,0.235115 0.578766,0.446977 0.888819,0.627835 l 0.835076,-1.271171 c 0.231507,-0.353964 0.620106,-0.475397 0.957031,-0.299706 l 1.98434,1.033471 c 0.384466,0.198944 0.589101,0.723431 0.479548,1.224664 l -0.496085,2.273638 c -0.09715,0.449561 -0.423738,0.762186 -0.795802,0.762186 -2.168306,0 -4.160913,-0.930125 -5.740117,-2.490668 z"
       id="path1-5"
       style="stroke-width:0.0231096;fill:#000000;fill-opacity:1" /></g></svg>
