<?xml version="1.0" encoding="UTF-8" standalone="no"?>
<!-- Created with Inkscape (http://www.inkscape.org/) -->

<svg
   width="240"
   height="240"
   viewBox="0 0 63.5 63.5"
   version="1.1"
   id="svg1"
   inkscape:version="1.4 (e7c3feb1, 2024-10-09)"
   sodipodi:docname="in_call.svg"
   inkscape:export-filename="in_call.png"
   inkscape:export-xdpi="96"
   inkscape:export-ydpi="96"
   xml:space="preserve"
   xmlns:inkscape="http://www.inkscape.org/namespaces/inkscape"
   xmlns:sodipodi="http://sodipodi.sourceforge.net/DTD/sodipodi-0.dtd"
   xmlns="http://www.w3.org/2000/svg"
   xmlns:svg="http://www.w3.org/2000/svg"><sodipodi:namedview
     id="namedview1"
     pagecolor="#ffffff"
     bordercolor="#666666"
     borderopacity="1.0"
     inkscape:showpageshadow="2"
     inkscape:pageopacity="0.0"
     inkscape:pagecheckerboard="0"
     inkscape:deskcolor="#d1d1d1"
     inkscape:document-units="mm"
     inkscape:zoom="4"
     inkscape:cx="120.375"
     inkscape:cy="128"
     inkscape:window-width="1904"
     inkscape:window-height="1547"
     inkscape:window-x="59"
     inkscape:window-y="25"
     inkscape:window-maximized="0"
     inkscape:current-layer="layer1"
     showgrid="false" /><defs
     id="defs1"><linearGradient
       id="swatch5"
       inkscape:swatch="solid"><stop
         style="stop-color:#000000;stop-opacity:1;"
         offset="0"
         id="stop5" /></linearGradient></defs><g
     inkscape:label="Layer 1"
     inkscape:groupmode="layer"
     id="layer1"><circle
       style="fill:#ce5c00;fill-opacity:1;stroke:#ff0000;stroke-width:0;stroke-dasharray:none;stroke-opacity:1"
       id="path1"
       cx="31.75"
       cy="31.75"
       r="31.75" /><path
       style="fill:#ef2929;fill-opacity:1;stroke:#000000;stroke-width:0;stroke-dasharray:none;stroke-opacity:1"
       id="path2"
       sodipodi:type="arc"
       sodipodi:cx="31.75"
       sodipodi:cy="31.75"
       sodipodi:rx="31.419271"
       sodipodi:ry="31.617708"
       sodipodi:start="3.1415927"
       sodipodi:end="0"
       sodipodi:arc-type="slice"
       d="M 0.33072853,31.75 A 31.419271,31.617708 0 0 1 31.75,0.13229179 31.419271,31.617708 0 0 1 63.169271,31.75 H 31.75 Z" /><path
       style="fill:#000000;fill-opacity:1;stroke:#000000;stroke-width:0;stroke-dasharray:none;stroke-opacity:1"
       id="path6"
       sodipodi:type="arc"
       sodipodi:cx="31.783073"
       sodipodi:cy="31.75"
       sodipodi:rx="31.716927"
       sodipodi:ry="31.683855"
       sodipodi:start="0"
       sodipodi:end="3.1415927"
       sodipodi:arc-type="slice"
       d="M 63.5,31.75 A 31.716927,31.683855 0 0 1 47.641536,59.189024 31.716927,31.683855 0 0 1 15.924609,59.189023 31.716927,31.683855 0 0 1 0.06614685,31.75 H 31.783073 Z" /><text
       xml:space="preserve"
       style="font-size:1.41111px;line-height:1.25;font-family:FontAwesome;-inkscape-font-specification:FontAwesome;stroke-width:0.264583"
       x="4.6400061"
       y="5.6487031"
       id="text6"><tspan
         sodipodi:role="line"
         id="tspan6"
         style="stroke-width:0.264583" /></text><path
       style="fill:#000000;fill-opacity:1;stroke:none;stroke-width:0.143629;stroke-opacity:1"
       d="m 19.366123,23.732571 c -0.221874,-0.111732 -0.50238,-0.333396 -0.623345,-0.492583 -0.334278,-0.439906 -2.514775,-4.892181 -2.61169,-5.332713 -0.158888,-0.722239 0.183741,-1.417249 1.277249,-2.590855 2.015513,-2.163146 4.784678,-4.018826 7.601769,-5.09412 4.095835,-1.5633918 9.021063,-1.5966148 13.114525,-0.08846 1.95061,0.718663 4.564843,2.269272 6.185602,3.66893 2.451426,2.117015 3.079661,3.067085 2.80276,4.238597 -0.183056,0.774469 -2.468045,5.18414 -2.858746,5.516935 -0.670284,0.570936 -1.35721,0.422115 -4.108291,-0.890057 -1.365867,-0.651473 -2.619721,-1.330606 -2.78634,-1.509185 -0.529076,-0.567061 -0.595651,-1.101018 -0.40385,-3.239104 l 0.175673,-1.958297 -0.682719,-0.226431 c -3.136165,-1.040139 -6.430103,-1.064033 -9.361892,-0.06791 l -0.923548,0.31379 0.071,0.646599 c 0.324127,2.952285 0.268757,3.867909 -0.275395,4.553892 -0.27091,0.341521 -5.439934,2.768599 -5.878344,2.760134 -0.171049,-0.0033 -0.492534,-0.09743 -0.714408,-0.209159 z"
       id="path5" /></g></svg>
